# Blender 4.1.1
# www.blender.org
mtllib DragonSlayer.mtl
o Plane
v 0.000000 1.280693 0.563539
v -0.000000 0.296246 0.558070
v -0.000000 -0.360052 0.552601
v -0.000000 -1.005412 0.541662
v -0.000000 -1.825785 0.541662
v -0.000000 -2.070385 0.401071
v 0.000000 1.286162 0.246328
v 0.000000 1.280693 0.238603
v -0.000000 0.296246 0.244072
v -0.000000 -0.360052 0.249541
v -0.000000 -1.005412 0.260480
v -0.000000 -1.825785 0.260480
v 0.000000 1.286162 0.555814
v 0.246579 1.280693 0.571233
v 0.246579 0.296246 0.565764
v 0.246579 -0.360052 0.560295
v 0.246579 -1.005412 0.549356
v 0.246579 -1.825785 0.549356
v 0.246579 -2.070385 0.408765
v 0.246579 1.286162 0.254022
v 0.246579 1.280693 0.246297
v 0.246579 0.296246 0.251766
v 0.246579 -0.360052 0.257235
v 0.246579 -1.005412 0.268174
v 0.246579 -1.825785 0.268174
v 0.123290 1.254944 0.068372
v 0.123290 -1.851534 0.090248
v 0.123290 -1.031161 0.090248
v 0.123290 0.270497 0.073841
v 0.123290 -1.839084 0.371431
v 0.123290 -1.031161 0.371431
v 0.123290 -2.392193 0.389624
v 0.123290 0.270497 0.387839
v 0.123290 1.277886 0.393308
v 0.123290 -0.385801 0.079310
v 0.123290 -0.385801 0.382369
v 0.123290 1.260413 0.076097
v 0.000000 1.280693 0.238603
v -0.000000 0.296246 0.244072
v -0.000000 -0.360052 0.249541
v -0.000000 -1.005412 0.260480
v -0.000000 -1.825785 0.260480
v 0.000000 1.286162 0.555814
v 0.000000 1.280693 0.563539
v -0.000000 0.296246 0.558070
v -0.000000 -0.360052 0.552601
v -0.000000 -1.005412 0.541662
v -0.000000 -1.825785 0.541662
v 0.000000 1.286162 0.246328
v 0.246579 1.280693 0.230909
v 0.246579 0.296246 0.236378
v 0.246579 -0.360052 0.241848
v 0.246579 -1.005412 0.252786
v 0.246579 -1.825785 0.252786
v 0.246579 -2.070385 0.393377
v 0.246579 1.286162 0.548120
v 0.246579 1.280693 0.555845
v 0.246579 0.296246 0.550376
v 0.246579 -0.360052 0.544907
v 0.246579 -1.005412 0.533969
v 0.246579 -1.825785 0.533969
v 0.123290 1.254944 0.733770
v 0.123290 -1.851534 0.711894
v 0.123290 -1.031161 0.711894
v 0.123290 0.270497 0.728301
v 0.123290 -1.839084 0.430711
v 0.123290 -1.031161 0.430711
v 0.123290 -2.392193 0.412518
v 0.123290 0.270497 0.414304
v 0.123290 1.277886 0.408834
v 0.123290 -0.385801 0.722832
v 0.123290 -0.385801 0.419773
v 0.123290 1.260413 0.726045
vn 1.0000 -0.0000 -0.0000
vn -1.0000 -0.0000 -0.0000
vn -0.8218 -0.0031 0.5697
vn 0.8110 -0.2860 -0.5104
vn -0.8220 -0.0000 0.5696
vn 0.8222 -0.0032 -0.5692
vn 0.8220 -0.0000 -0.5696
vn 0.8223 -0.0047 -0.5691
vn -0.5042 -0.1310 0.8536
vn -0.8216 -0.0048 0.5700
vn 0.8226 -0.0096 -0.5686
vn -0.0881 0.9959 -0.0188
vn 0.5528 0.6801 -0.4815
vn -0.8213 -0.0097 0.5705
vn 0.8091 -0.0100 0.5875
vn -0.5314 0.6914 -0.4895
vn 0.0893 0.9958 -0.0188
vn -0.8106 -0.0099 -0.5856
vn 0.8095 -0.0049 0.5870
vn 0.4629 -0.1344 0.8762
vn -0.8102 -0.0049 -0.5861
vn -0.8099 -0.0000 -0.5866
vn -0.8101 -0.0033 -0.5862
vn 0.8099 -0.0000 0.5866
vn -0.7997 -0.2935 -0.5238
vn 0.8098 -0.0032 0.5867
vn 0.0312 0.0474 -0.9984
vn -0.0312 0.0329 0.9990
vn -0.0000 1.0000 -0.0000
vn -0.8218 -0.0031 -0.5697
vn 0.8110 -0.2860 0.5104
vn -0.8220 -0.0000 -0.5696
vn 0.8222 -0.0032 0.5692
vn 0.8220 -0.0000 0.5696
vn 0.8223 -0.0047 0.5691
vn -0.5042 -0.1310 -0.8536
vn -0.8216 -0.0048 -0.5700
vn 0.8226 -0.0096 0.5686
vn -0.0881 0.9959 0.0188
vn 0.5528 0.6801 0.4815
vn -0.8213 -0.0097 -0.5705
vn 0.8091 -0.0100 -0.5875
vn -0.5314 0.6914 0.4895
vn 0.0893 0.9958 0.0188
vn -0.8106 -0.0099 0.5856
vn 0.8095 -0.0049 -0.5870
vn 0.4629 -0.1344 -0.8762
vn -0.8102 -0.0049 0.5861
vn -0.8099 -0.0000 0.5866
vn -0.8101 -0.0033 0.5862
vn 0.8099 -0.0000 -0.5866
vn -0.7997 -0.2935 0.5238
vn 0.8098 -0.0032 -0.5867
vn 0.0312 0.0474 0.9984
vn -0.0312 0.0329 -0.9990
vt 0.000000 0.000000
s 0
f 7/1/1 8/1/1 13/1/1 1/1/1
f 2/1/2 1/1/2 13/1/2 8/1/2 9/1/2
f 34/1/3 33/1/3 15/1/3 14/1/3
f 32/1/4 27/1/4 25/1/4 19/1/4
f 31/1/5 30/1/5 18/1/5 17/1/5
f 29/1/6 26/1/6 21/1/6 22/1/6
f 27/1/7 28/1/7 24/1/7 25/1/7
f 9/1/2 2/1/2 1/1/2 13/1/2 7/1/2 8/1/2
f 15/1/1 22/1/1 21/1/1 20/1/1 14/1/1
f 22/1/1 15/1/1 16/1/1 23/1/1
f 17/1/1 24/1/1 23/1/1 16/1/1
f 18/1/1 25/1/1 24/1/1 17/1/1
f 19/1/1 25/1/1 18/1/1
f 35/1/8 29/1/8 22/1/8 23/1/8
f 30/1/9 32/1/9 19/1/9 18/1/9
f 33/1/10 36/1/10 16/1/10 15/1/10
f 28/1/11 35/1/11 23/1/11 24/1/11
f 37/1/12 34/1/12 14/1/12 20/1/12
f 26/1/13 37/1/13 20/1/13 21/1/13
f 36/1/14 31/1/14 17/1/14 16/1/14
f 3/1/15 4/1/15 31/1/15 36/1/15
f 8/1/16 7/1/16 37/1/16 26/1/16
f 7/1/17 1/1/17 34/1/17 37/1/17
f 11/1/18 10/1/18 35/1/18 28/1/18
f 2/1/19 3/1/19 36/1/19 33/1/19
f 5/1/20 6/1/20 32/1/20 30/1/20
f 10/1/21 9/1/21 29/1/21 35/1/21
f 12/1/22 11/1/22 28/1/22 27/1/22
f 9/1/23 8/1/23 26/1/23 29/1/23
f 4/1/24 5/1/24 30/1/24 31/1/24
f 6/1/25 12/1/25 27/1/25 32/1/25
f 1/1/26 2/1/26 33/1/26 34/1/26
f 6/1/27 19/1/27 32/1/27
f 19/1/28 30/1/28 6/1/28 32/1/28
f 43/1/29 38/1/29 49/1/29 44/1/29
f 39/1/2 45/1/2 44/1/2 49/1/2 38/1/2
f 70/1/30 50/1/30 51/1/30 69/1/30
f 68/1/31 55/1/31 61/1/31 63/1/31
f 67/1/32 53/1/32 54/1/32 66/1/32
f 65/1/33 58/1/33 57/1/33 62/1/33
f 63/1/34 61/1/34 60/1/34 64/1/34
f 45/1/2 44/1/2 43/1/2 49/1/2 38/1/2 39/1/2
f 51/1/1 50/1/1 56/1/1 57/1/1 58/1/1
f 58/1/1 59/1/1 52/1/1 51/1/1
f 53/1/1 52/1/1 59/1/1 60/1/1
f 54/1/1 53/1/1 60/1/1 61/1/1
f 55/1/1 54/1/1 61/1/1
f 71/1/35 59/1/35 58/1/35 65/1/35
f 66/1/36 54/1/36 55/1/36 68/1/36
f 69/1/37 51/1/37 52/1/37 72/1/37
f 64/1/38 60/1/38 59/1/38 71/1/38
f 73/1/39 56/1/39 50/1/39 70/1/39
f 62/1/40 57/1/40 56/1/40 73/1/40
f 72/1/41 52/1/41 53/1/41 67/1/41
f 40/1/42 72/1/42 67/1/42 41/1/42
f 44/1/43 62/1/43 73/1/43 43/1/43
f 43/1/44 73/1/44 70/1/44 38/1/44
f 47/1/45 64/1/45 71/1/45 46/1/45
f 39/1/46 69/1/46 72/1/46 40/1/46
f 42/1/47 66/1/47 68/1/47 6/1/47
f 46/1/48 71/1/48 65/1/48 45/1/48
f 48/1/49 63/1/49 64/1/49 47/1/49
f 45/1/50 65/1/50 62/1/50 44/1/50
f 41/1/51 67/1/51 66/1/51 42/1/51
f 6/1/52 68/1/52 63/1/52 48/1/52
f 38/1/53 70/1/53 69/1/53 39/1/53
f 6/1/54 68/1/54 55/1/54
f 55/1/55 68/1/55 6/1/55 66/1/55
o Cylinder
v 0.122084 1.213756 0.341588
v 0.122084 2.113756 0.341588
v 0.131839 1.213756 0.342549
v 0.131839 2.113756 0.342549
v 0.141218 1.213756 0.345394
v 0.141218 2.113756 0.345394
v 0.149863 1.213756 0.350015
v 0.149863 2.113756 0.350015
v 0.157439 1.213756 0.356233
v 0.157439 2.113756 0.356233
v 0.163658 1.213756 0.363810
v 0.163658 2.113756 0.363810
v 0.168278 1.213756 0.372454
v 0.168278 2.113756 0.372454
v 0.171123 1.213756 0.381834
v 0.171123 2.113756 0.381834
v 0.172084 1.213756 0.391588
v 0.172084 2.113756 0.391588
v 0.171123 1.213756 0.401343
v 0.171123 2.113756 0.401343
v 0.168278 1.213756 0.410722
v 0.168278 2.113756 0.410722
v 0.163658 1.213756 0.419367
v 0.163658 2.113756 0.419367
v 0.157439 1.213756 0.426943
v 0.157439 2.113756 0.426943
v 0.149863 1.213756 0.433162
v 0.149863 2.113756 0.433162
v 0.141218 1.213756 0.437782
v 0.141218 2.113756 0.437782
v 0.131839 1.213756 0.440627
v 0.131839 2.113756 0.440627
v 0.122084 1.213756 0.441588
v 0.122084 2.113756 0.441588
v 0.112330 1.213756 0.440627
v 0.112330 2.113756 0.440627
v 0.102950 1.213756 0.437782
v 0.102950 2.113756 0.437782
v 0.094306 1.213756 0.433162
v 0.094306 2.113756 0.433162
v 0.086729 1.213756 0.426943
v 0.086729 2.113756 0.426943
v 0.080511 1.213756 0.419367
v 0.080511 2.113756 0.419367
v 0.075890 1.213756 0.410722
v 0.075890 2.113756 0.410722
v 0.073045 1.213756 0.401343
v 0.073045 2.113756 0.401343
v 0.072084 1.213756 0.391588
v 0.072084 2.113756 0.391588
v 0.073045 1.213756 0.381834
v 0.073045 2.113756 0.381834
v 0.075890 1.213756 0.372454
v 0.075890 2.113756 0.372454
v 0.080511 1.213756 0.363810
v 0.080511 2.113756 0.363810
v 0.086729 1.213756 0.356233
v 0.086729 2.113756 0.356233
v 0.094306 1.213756 0.350015
v 0.094306 2.113756 0.350015
v 0.102950 1.213756 0.345394
v 0.102950 2.113756 0.345394
v 0.112330 1.213756 0.342549
v 0.112330 2.113756 0.342549
vn 0.0980 -0.0000 -0.9952
vn 0.2903 -0.0000 -0.9569
vn 0.4714 -0.0000 -0.8819
vn 0.6344 -0.0000 -0.7730
vn 0.7730 -0.0000 -0.6344
vn 0.8819 -0.0000 -0.4714
vn 0.9569 -0.0000 -0.2903
vn 0.9952 -0.0000 -0.0980
vn 0.9952 -0.0000 0.0980
vn 0.9569 -0.0000 0.2903
vn 0.8819 -0.0000 0.4714
vn 0.7730 -0.0000 0.6344
vn 0.6344 -0.0000 0.7730
vn 0.4714 -0.0000 0.8819
vn 0.2903 -0.0000 0.9569
vn 0.0980 -0.0000 0.9952
vn -0.0980 -0.0000 0.9952
vn -0.2903 -0.0000 0.9569
vn -0.4714 -0.0000 0.8819
vn -0.6344 -0.0000 0.7730
vn -0.7730 -0.0000 0.6344
vn -0.8819 -0.0000 0.4714
vn -0.9569 -0.0000 0.2903
vn -0.9952 -0.0000 0.0980
vn -0.9952 -0.0000 -0.0980
vn -0.9569 -0.0000 -0.2903
vn -0.8819 -0.0000 -0.4714
vn -0.7730 -0.0000 -0.6344
vn -0.6344 -0.0000 -0.7730
vn -0.4714 -0.0000 -0.8819
vn -0.0000 1.0000 -0.0000
vn -0.2903 -0.0000 -0.9569
vn -0.0980 -0.0000 -0.9952
vn -0.0000 -1.0000 -0.0000
vt 1.000000 0.500000
vt 1.000000 1.000000
vt 0.968750 1.000000
vt 0.968750 0.500000
vt 0.937500 1.000000
vt 0.937500 0.500000
vt 0.906250 1.000000
vt 0.906250 0.500000
vt 0.875000 1.000000
vt 0.875000 0.500000
vt 0.843750 1.000000
vt 0.843750 0.500000
vt 0.812500 1.000000
vt 0.812500 0.500000
vt 0.781250 1.000000
vt 0.781250 0.500000
vt 0.750000 1.000000
vt 0.750000 0.500000
vt 0.718750 1.000000
vt 0.718750 0.500000
vt 0.687500 1.000000
vt 0.687500 0.500000
vt 0.656250 1.000000
vt 0.656250 0.500000
vt 0.625000 1.000000
vt 0.625000 0.500000
vt 0.593750 1.000000
vt 0.593750 0.500000
vt 0.562500 1.000000
vt 0.562500 0.500000
vt 0.531250 1.000000
vt 0.531250 0.500000
vt 0.500000 1.000000
vt 0.500000 0.500000
vt 0.468750 1.000000
vt 0.468750 0.500000
vt 0.437500 1.000000
vt 0.437500 0.500000
vt 0.406250 1.000000
vt 0.406250 0.500000
vt 0.375000 1.000000
vt 0.375000 0.500000
vt 0.343750 1.000000
vt 0.343750 0.500000
vt 0.312500 1.000000
vt 0.312500 0.500000
vt 0.281250 1.000000
vt 0.281250 0.500000
vt 0.250000 1.000000
vt 0.250000 0.500000
vt 0.218750 1.000000
vt 0.218750 0.500000
vt 0.187500 1.000000
vt 0.187500 0.500000
vt 0.156250 1.000000
vt 0.156250 0.500000
vt 0.125000 1.000000
vt 0.125000 0.500000
vt 0.093750 1.000000
vt 0.093750 0.500000
vt 0.062500 1.000000
vt 0.062500 0.500000
vt 0.296822 0.485388
vt 0.250000 0.490000
vt 0.203178 0.485388
vt 0.158156 0.471731
vt 0.116663 0.449553
vt 0.080294 0.419706
vt 0.050447 0.383337
vt 0.028269 0.341844
vt 0.014612 0.296822
vt 0.010000 0.250000
vt 0.014612 0.203178
vt 0.028269 0.158156
vt 0.050447 0.116663
vt 0.080294 0.080294
vt 0.116663 0.050447
vt 0.158156 0.028269
vt 0.203178 0.014612
vt 0.250000 0.010000
vt 0.296822 0.014612
vt 0.341844 0.028269
vt 0.383337 0.050447
vt 0.419706 0.080294
vt 0.449553 0.116663
vt 0.471731 0.158156
vt 0.485388 0.203178
vt 0.490000 0.250000
vt 0.485388 0.296822
vt 0.471731 0.341844
vt 0.449553 0.383337
vt 0.419706 0.419706
vt 0.383337 0.449553
vt 0.341844 0.471731
vt 0.031250 1.000000
vt 0.031250 0.500000
vt 0.000000 1.000000
vt 0.000000 0.500000
vt 0.750000 0.490000
vt 0.796822 0.485388
vt 0.841844 0.471731
vt 0.883337 0.449553
vt 0.919706 0.419706
vt 0.949553 0.383337
vt 0.971731 0.341844
vt 0.985388 0.296822
vt 0.990000 0.250000
vt 0.985388 0.203178
vt 0.971731 0.158156
vt 0.949553 0.116663
vt 0.919706 0.080294
vt 0.883337 0.050447
vt 0.841844 0.028269
vt 0.796822 0.014612
vt 0.750000 0.010000
vt 0.703178 0.014612
vt 0.658156 0.028269
vt 0.616663 0.050447
vt 0.580294 0.080294
vt 0.550447 0.116663
vt 0.528269 0.158156
vt 0.514612 0.203178
vt 0.510000 0.250000
vt 0.514612 0.296822
vt 0.528269 0.341844
vt 0.550447 0.383337
vt 0.580294 0.419706
vt 0.616663 0.449553
vt 0.658156 0.471731
vt 0.703178 0.485388
s 0
f 74/2/56 75/3/56 77/4/56 76/5/56
f 76/5/57 77/4/57 79/6/57 78/7/57
f 78/7/58 79/6/58 81/8/58 80/9/58
f 80/9/59 81/8/59 83/10/59 82/11/59
f 82/11/60 83/10/60 85/12/60 84/13/60
f 84/13/61 85/12/61 87/14/61 86/15/61
f 86/15/62 87/14/62 89/16/62 88/17/62
f 88/17/63 89/16/63 91/18/63 90/19/63
f 90/19/64 91/18/64 93/20/64 92/21/64
f 92/21/65 93/20/65 95/22/65 94/23/65
f 94/23/66 95/22/66 97/24/66 96/25/66
f 96/25/67 97/24/67 99/26/67 98/27/67
f 98/27/68 99/26/68 101/28/68 100/29/68
f 100/29/69 101/28/69 103/30/69 102/31/69
f 102/31/70 103/30/70 105/32/70 104/33/70
f 104/33/71 105/32/71 107/34/71 106/35/71
f 106/35/72 107/34/72 109/36/72 108/37/72
f 108/37/73 109/36/73 111/38/73 110/39/73
f 110/39/74 111/38/74 113/40/74 112/41/74
f 112/41/75 113/40/75 115/42/75 114/43/75
f 114/43/76 115/42/76 117/44/76 116/45/76
f 116/45/77 117/44/77 119/46/77 118/47/77
f 118/47/78 119/46/78 121/48/78 120/49/78
f 120/49/79 121/48/79 123/50/79 122/51/79
f 122/51/80 123/50/80 125/52/80 124/53/80
f 124/53/81 125/52/81 127/54/81 126/55/81
f 126/55/82 127/54/82 129/56/82 128/57/82
f 128/57/83 129/56/83 131/58/83 130/59/83
f 130/59/84 131/58/84 133/60/84 132/61/84
f 132/61/85 133/60/85 135/62/85 134/63/85
f 77/64/86 75/65/86 137/66/86 135/67/86 133/68/86 131/69/86 129/70/86 127/71/86 125/72/86 123/73/86 121/74/86 119/75/86 117/76/86 115/77/86 113/78/86 111/79/86 109/80/86 107/81/86 105/82/86 103/83/86 101/84/86 99/85/86 97/86/86 95/87/86 93/88/86 91/89/86 89/90/86 87/91/86 85/92/86 83/93/86 81/94/86 79/95/86
f 134/63/87 135/62/87 137/96/87 136/97/87
f 136/97/88 137/96/88 75/98/88 74/99/88
f 74/100/89 76/101/89 78/102/89 80/103/89 82/104/89 84/105/89 86/106/89 88/107/89 90/108/89 92/109/89 94/110/89 96/111/89 98/112/89 100/113/89 102/114/89 104/115/89 106/116/89 108/117/89 110/118/89 112/119/89 114/120/89 116/121/89 118/122/89 120/123/89 122/124/89 124/125/89 126/126/89 128/127/89 130/128/89 132/129/89 134/130/89 136/131/89
