# Blender 4.1.1
# www.blender.org
mtllib Rapier3.mtl
o Plane
v 0.019032 0.161416 -1.567692
v 0.019032 0.118990 0.572192
v 0.030299 0.118990 -1.567692
v 0.019032 0.076564 -1.567692
v -0.085793 0.161416 -1.567692
v 0.014526 0.118990 0.572192
v -0.101766 0.118990 -1.567692
v -0.085793 0.076564 -1.567692
v 0.016779 0.120715 0.572192
v -0.033380 0.188633 -1.567692
v -0.034551 0.103781 -1.567692
v -0.034551 0.146207 -1.567692
v 0.019032 0.076564 -1.567692
v 0.019032 0.161416 -1.567692
v -0.085793 0.076564 -1.567692
v -0.085793 0.161416 -1.567692
v 0.016779 0.117266 0.572192
v -0.033380 0.049347 -1.567692
v -0.034551 0.134199 -1.567692
v -0.034551 0.091773 -1.567692
vn -0.9665 -0.2567 -0.0051
vn -0.9665 0.2567 -0.0051
vn 0.9347 -0.3519 -0.0508
vn 0.9347 0.3519 -0.0508
vn 0.4675 -0.8831 -0.0392
vn -0.4758 0.8795 0.0047
vn -0.0000 -0.0000 1.0000
vn 0.4601 0.8877 -0.0178
vn -0.4678 -0.8837 -0.0173
vn 0.4675 0.8831 -0.0392
vn -0.4758 -0.8795 0.0047
vn 0.4601 -0.8877 -0.0178
vn -0.4678 0.8837 -0.0173
vt 0.000000 0.000000
s 0
f 1/1/1 3/1/1 2/1/1
f 4/1/2 2/1/2 3/1/2
f 5/1/3 6/1/3 7/1/3
f 8/1/4 7/1/4 6/1/4
f 10/1/5 9/1/5 6/1/5 5/1/5
f 9/1/6 11/1/6 8/1/6 6/1/6
f 12/1/7 10/1/7 5/1/7 7/1/7
f 11/1/7 12/1/7 7/1/7 8/1/7
f 4/1/7 3/1/7 12/1/7 11/1/7
f 3/1/7 1/1/7 10/1/7 12/1/7
f 2/1/8 4/1/8 11/1/8 9/1/8
f 1/1/9 2/1/9 9/1/9 10/1/9
f 13/1/2 2/1/2 3/1/2
f 14/1/1 3/1/1 2/1/1
f 15/1/4 7/1/4 6/1/4
f 16/1/3 6/1/3 7/1/3
f 18/1/10 15/1/10 6/1/10 17/1/10
f 17/1/11 6/1/11 16/1/11 19/1/11
f 20/1/7 7/1/7 15/1/7 18/1/7
f 19/1/7 16/1/7 7/1/7 20/1/7
f 14/1/7 19/1/7 20/1/7 3/1/7
f 3/1/7 20/1/7 18/1/7 13/1/7
f 2/1/12 17/1/12 19/1/12 14/1/12
f 13/1/13 18/1/13 17/1/13 2/1/13
o Cylinder
v -0.033848 0.145623 -1.963563
v -0.033848 0.145623 -1.552047
v -0.028971 0.145143 -1.963563
v -0.028971 0.145143 -1.552047
v -0.024281 0.143720 -1.963563
v -0.024281 0.143720 -1.552047
v -0.019959 0.141410 -1.963563
v -0.019959 0.141410 -1.552047
v -0.016170 0.138301 -1.963563
v -0.016170 0.138301 -1.552047
v -0.013061 0.134512 -1.963563
v -0.013061 0.134512 -1.552047
v -0.010751 0.130190 -1.963563
v -0.010751 0.130190 -1.552047
v -0.009329 0.125500 -1.963563
v -0.009329 0.125500 -1.552047
v -0.008848 0.120623 -1.963563
v -0.008848 0.120623 -1.552047
v -0.009329 0.115746 -1.963563
v -0.009329 0.115746 -1.552047
v -0.010751 0.111056 -1.963563
v -0.010751 0.111056 -1.552047
v -0.013061 0.106734 -1.963563
v -0.013061 0.106734 -1.552047
v -0.016170 0.102945 -1.963563
v -0.016170 0.102945 -1.552047
v -0.019959 0.099836 -1.963563
v -0.019959 0.099836 -1.552047
v -0.024281 0.097526 -1.963563
v -0.024281 0.097526 -1.552047
v -0.028971 0.096103 -1.963563
v -0.028971 0.096103 -1.552047
v -0.033848 0.095623 -1.963563
v -0.033848 0.095623 -1.552047
v -0.038725 0.096103 -1.963563
v -0.038725 0.096103 -1.552047
v -0.043415 0.097526 -1.963563
v -0.043415 0.097526 -1.552047
v -0.047737 0.099836 -1.963563
v -0.047737 0.099836 -1.552047
v -0.051526 0.102945 -1.963563
v -0.051526 0.102945 -1.552047
v -0.054635 0.106734 -1.963563
v -0.054635 0.106734 -1.552047
v -0.056945 0.111056 -1.963563
v -0.056945 0.111056 -1.552047
v -0.058368 0.115746 -1.963563
v -0.058368 0.115746 -1.552047
v -0.058848 0.120623 -1.963563
v -0.058848 0.120623 -1.552047
v -0.058368 0.125500 -1.963563
v -0.058368 0.125500 -1.552047
v -0.056945 0.130190 -1.963563
v -0.056945 0.130190 -1.552047
v -0.054635 0.134512 -1.963563
v -0.054635 0.134512 -1.552047
v -0.051526 0.138301 -1.963563
v -0.051526 0.138301 -1.552047
v -0.047737 0.141410 -1.963563
v -0.047737 0.141410 -1.552047
v -0.043415 0.143720 -1.963563
v -0.043415 0.143720 -1.552047
v -0.038725 0.145143 -1.963563
v -0.038725 0.145143 -1.552047
vn 0.0980 0.9952 -0.0000
vn 0.2903 0.9569 -0.0000
vn 0.4714 0.8819 -0.0000
vn 0.6344 0.7730 -0.0000
vn 0.7730 0.6344 -0.0000
vn 0.8819 0.4714 -0.0000
vn 0.9569 0.2903 -0.0000
vn 0.9952 0.0980 -0.0000
vn 0.9952 -0.0980 -0.0000
vn 0.9569 -0.2903 -0.0000
vn 0.8819 -0.4714 -0.0000
vn 0.7730 -0.6344 -0.0000
vn 0.6344 -0.7730 -0.0000
vn 0.4714 -0.8819 -0.0000
vn 0.2903 -0.9569 -0.0000
vn 0.0980 -0.9952 -0.0000
vn -0.0980 -0.9952 -0.0000
vn -0.2903 -0.9569 -0.0000
vn -0.4714 -0.8819 -0.0000
vn -0.6344 -0.7730 -0.0000
vn -0.7730 -0.6344 -0.0000
vn -0.8819 -0.4714 -0.0000
vn -0.9569 -0.2903 -0.0000
vn -0.9952 -0.0980 -0.0000
vn -0.9952 0.0980 -0.0000
vn -0.9569 0.2903 -0.0000
vn -0.8819 0.4714 -0.0000
vn -0.7730 0.6344 -0.0000
vn -0.6344 0.7730 -0.0000
vn -0.4714 0.8819 -0.0000
vn -0.0000 -0.0000 1.0000
vn -0.2903 0.9569 -0.0000
vn -0.0980 0.9952 -0.0000
vn -0.0000 -0.0000 -1.0000
vt 1.000000 0.500000
vt 1.000000 1.000000
vt 0.968750 1.000000
vt 0.968750 0.500000
vt 0.937500 1.000000
vt 0.937500 0.500000
vt 0.906250 1.000000
vt 0.906250 0.500000
vt 0.875000 1.000000
vt 0.875000 0.500000
vt 0.843750 1.000000
vt 0.843750 0.500000
vt 0.812500 1.000000
vt 0.812500 0.500000
vt 0.781250 1.000000
vt 0.781250 0.500000
vt 0.750000 1.000000
vt 0.750000 0.500000
vt 0.718750 1.000000
vt 0.718750 0.500000
vt 0.687500 1.000000
vt 0.687500 0.500000
vt 0.656250 1.000000
vt 0.656250 0.500000
vt 0.625000 1.000000
vt 0.625000 0.500000
vt 0.593750 1.000000
vt 0.593750 0.500000
vt 0.562500 1.000000
vt 0.562500 0.500000
vt 0.531250 1.000000
vt 0.531250 0.500000
vt 0.500000 1.000000
vt 0.500000 0.500000
vt 0.468750 1.000000
vt 0.468750 0.500000
vt 0.437500 1.000000
vt 0.437500 0.500000
vt 0.406250 1.000000
vt 0.406250 0.500000
vt 0.375000 1.000000
vt 0.375000 0.500000
vt 0.343750 1.000000
vt 0.343750 0.500000
vt 0.312500 1.000000
vt 0.312500 0.500000
vt 0.281250 1.000000
vt 0.281250 0.500000
vt 0.250000 1.000000
vt 0.250000 0.500000
vt 0.218750 1.000000
vt 0.218750 0.500000
vt 0.187500 1.000000
vt 0.187500 0.500000
vt 0.156250 1.000000
vt 0.156250 0.500000
vt 0.125000 1.000000
vt 0.125000 0.500000
vt 0.093750 1.000000
vt 0.093750 0.500000
vt 0.062500 1.000000
vt 0.062500 0.500000
vt 0.296822 0.485388
vt 0.250000 0.490000
vt 0.203178 0.485388
vt 0.158156 0.471731
vt 0.116663 0.449553
vt 0.080294 0.419706
vt 0.050447 0.383337
vt 0.028269 0.341844
vt 0.014612 0.296822
vt 0.010000 0.250000
vt 0.014612 0.203178
vt 0.028269 0.158156
vt 0.050447 0.116663
vt 0.080294 0.080294
vt 0.116663 0.050447
vt 0.158156 0.028269
vt 0.203178 0.014612
vt 0.250000 0.010000
vt 0.296822 0.014612
vt 0.341844 0.028269
vt 0.383337 0.050447
vt 0.419706 0.080294
vt 0.449553 0.116663
vt 0.471731 0.158156
vt 0.485388 0.203178
vt 0.490000 0.250000
vt 0.485388 0.296822
vt 0.471731 0.341844
vt 0.449553 0.383337
vt 0.419706 0.419706
vt 0.383337 0.449553
vt 0.341844 0.471731
vt 0.031250 1.000000
vt 0.031250 0.500000
vt 0.000000 1.000000
vt 0.000000 0.500000
vt 0.750000 0.490000
vt 0.796822 0.485388
vt 0.841844 0.471731
vt 0.883337 0.449553
vt 0.919706 0.419706
vt 0.949553 0.383337
vt 0.971731 0.341844
vt 0.985388 0.296822
vt 0.990000 0.250000
vt 0.985388 0.203178
vt 0.971731 0.158156
vt 0.949553 0.116663
vt 0.919706 0.080294
vt 0.883337 0.050447
vt 0.841844 0.028269
vt 0.796822 0.014612
vt 0.750000 0.010000
vt 0.703178 0.014612
vt 0.658156 0.028269
vt 0.616663 0.050447
vt 0.580294 0.080294
vt 0.550447 0.116663
vt 0.528269 0.158156
vt 0.514612 0.203178
vt 0.510000 0.250000
vt 0.514612 0.296822
vt 0.528269 0.341844
vt 0.550447 0.383337
vt 0.580294 0.419706
vt 0.616663 0.449553
vt 0.658156 0.471731
vt 0.703178 0.485388
s 0
f 21/2/14 22/3/14 24/4/14 23/5/14
f 23/5/15 24/4/15 26/6/15 25/7/15
f 25/7/16 26/6/16 28/8/16 27/9/16
f 27/9/17 28/8/17 30/10/17 29/11/17
f 29/11/18 30/10/18 32/12/18 31/13/18
f 31/13/19 32/12/19 34/14/19 33/15/19
f 33/15/20 34/14/20 36/16/20 35/17/20
f 35/17/21 36/16/21 38/18/21 37/19/21
f 37/19/22 38/18/22 40/20/22 39/21/22
f 39/21/23 40/20/23 42/22/23 41/23/23
f 41/23/24 42/22/24 44/24/24 43/25/24
f 43/25/25 44/24/25 46/26/25 45/27/25
f 45/27/26 46/26/26 48/28/26 47/29/26
f 47/29/27 48/28/27 50/30/27 49/31/27
f 49/31/28 50/30/28 52/32/28 51/33/28
f 51/33/29 52/32/29 54/34/29 53/35/29
f 53/35/30 54/34/30 56/36/30 55/37/30
f 55/37/31 56/36/31 58/38/31 57/39/31
f 57/39/32 58/38/32 60/40/32 59/41/32
f 59/41/33 60/40/33 62/42/33 61/43/33
f 61/43/34 62/42/34 64/44/34 63/45/34
f 63/45/35 64/44/35 66/46/35 65/47/35
f 65/47/36 66/46/36 68/48/36 67/49/36
f 67/49/37 68/48/37 70/50/37 69/51/37
f 69/51/38 70/50/38 72/52/38 71/53/38
f 71/53/39 72/52/39 74/54/39 73/55/39
f 73/55/40 74/54/40 76/56/40 75/57/40
f 75/57/41 76/56/41 78/58/41 77/59/41
f 77/59/42 78/58/42 80/60/42 79/61/42
f 79/61/43 80/60/43 82/62/43 81/63/43
f 24/64/44 22/65/44 84/66/44 82/67/44 80/68/44 78/69/44 76/70/44 74/71/44 72/72/44 70/73/44 68/74/44 66/75/44 64/76/44 62/77/44 60/78/44 58/79/44 56/80/44 54/81/44 52/82/44 50/83/44 48/84/44 46/85/44 44/86/44 42/87/44 40/88/44 38/89/44 36/90/44 34/91/44 32/92/44 30/93/44 28/94/44 26/95/44
f 81/63/45 82/62/45 84/96/45 83/97/45
f 83/97/46 84/96/46 22/98/46 21/99/46
f 21/100/47 23/101/47 25/102/47 27/103/47 29/104/47 31/105/47 33/106/47 35/107/47 37/108/47 39/109/47 41/110/47 43/111/47 45/112/47 47/113/47 49/114/47 51/115/47 53/116/47 55/117/47 57/118/47 59/119/47 61/120/47 63/121/47 65/122/47 67/123/47 69/124/47 71/125/47 73/126/47 75/127/47 77/128/47 79/129/47 81/130/47 83/131/47
